<svg width="216" height="36" viewBox="0 0 216 36" fill="none" xmlns="http://www.w3.org/2000/svg">
<path d="M15.5249 2.01601C19.7323 2.01601 23.5487 3.69033 26.3448 6.40927L26.3435 6.41122C26.9812 7.03304 27.3773 7.90178 27.3773 8.86306C27.3773 9.41886 27.2449 9.94372 27.0099 10.4078H31.0916L38.8958 18.2151L29.2995 27.8152C28.8252 28.4737 28.5458 29.282 28.5458 30.1557C28.5458 32.3693 30.3395 34.1637 32.5522 34.1637C33.6587 34.1637 34.6603 33.715 35.3854 32.9896L35.3901 32.9947L50.1638 18.2151C45.3506 13.4278 35.5571 3.66932 34.8893 2.93452C34.2216 2.19972 33.2478 2.01601 32.8444 2.01601H15.5249Z" fill="#4827CC"/>
<path d="M26.3448 6.40927C23.5487 3.69033 19.7323 2.01601 15.5249 2.01601C11.5432 2.01601 7.91163 3.51554 5.16363 5.98088C5.69656 5.63826 6.33071 5.43954 7.01125 5.43954C8.90126 5.43954 10.4334 6.9723 10.4334 8.86306C10.4334 9.68759 10.142 10.444 9.65669 11.035C11.2102 9.63304 13.2679 8.77956 15.5249 8.77956C18.1327 8.77956 20.4744 9.91895 22.0798 11.7273C22.6184 12.0809 23.2627 12.2866 23.9551 12.2866C25.2895 12.2866 26.4456 11.5225 27.0099 10.4078C27.2449 9.94372 27.3773 9.41886 27.3773 8.86306C27.3773 7.90178 26.9812 7.03304 26.3435 6.41122L26.3448 6.40927Z" fill="#6554EB"/>
<path d="M3.58909 8.86306C3.58909 10.7538 5.12125 12.2866 7.01125 12.2866C7.81159 12.2866 8.54776 12.0117 9.13059 11.5512C9.29867 11.3719 9.4742 11.1997 9.65669 11.035C10.142 10.444 10.4334 9.68759 10.4334 8.86306C10.4334 6.9723 8.90126 5.43954 7.01125 5.43954C6.33071 5.43954 5.69656 5.63826 5.16363 5.98088C4.81686 6.29198 4.48417 6.61846 4.16661 6.95924C3.80186 7.50361 3.58909 8.15848 3.58909 8.86306Z" fill="#8B7BF1"/>
<path d="M7.01125 29.6547C8.90126 29.6547 10.4334 28.1219 10.4334 26.2312C10.4334 25.4066 10.142 24.6502 9.65669 24.0592C9.4742 23.8945 9.29867 23.7223 9.13059 23.543C8.54776 23.0825 7.81159 22.8076 7.01125 22.8076C5.12125 22.8076 3.58909 24.3404 3.58909 26.2312C3.58909 26.9357 3.80185 27.5906 4.16661 28.135C4.48417 28.4758 4.81686 28.8022 5.16363 29.1133C5.69656 29.456 6.33071 29.6547 7.01125 29.6547Z" fill="#9180F2"/>
<path d="M3.58909 26.2312C3.58909 24.3404 5.12125 22.8076 7.01125 22.8076C7.81159 22.8076 8.54776 23.0825 9.13059 23.543C7.66089 21.975 6.76085 19.8662 6.76085 17.5471C6.76085 15.228 7.66089 13.1192 9.13059 11.5512C8.54776 12.0117 7.81159 12.2866 7.01125 12.2866C5.12125 12.2866 3.58909 10.7538 3.58909 8.86306C3.58909 8.15848 3.80186 7.50361 4.16661 6.95924C1.58162 9.73333 0 13.4554 0 17.5471C0 21.6388 1.58162 25.3609 4.16661 28.135C3.80185 27.5906 3.58909 26.9357 3.58909 26.2312Z" fill="#3E2EE4"/>
<path d="M27.3773 26.2312C27.3773 24.3404 25.8451 22.8076 23.9551 22.8076C23.2627 22.8076 22.6184 23.0133 22.0798 23.367C20.4744 25.1753 18.1327 26.3147 15.5249 26.3147C13.2679 26.3147 11.2102 25.4612 9.65669 24.0592C10.142 24.6502 10.4334 25.4066 10.4334 26.2312C10.4334 28.1219 8.90126 29.6547 7.01125 29.6547C6.33071 29.6547 5.69656 29.456 5.16363 29.1133C7.91163 31.5787 11.5432 33.0782 15.5249 33.0782C19.7268 33.0782 23.5388 31.4082 26.3339 28.6955L26.3317 28.6944C26.9764 28.0718 27.3773 27.1983 27.3773 26.2312Z" fill="#8372F0"/>
<path d="M40.1895 2.55855L39.6052 3.14282L40.1895 3.72709L40.7738 3.14282L40.1895 2.55855Z" fill="#4827CC"/>
<path d="M41.9423 2.55855L41.358 3.14282L41.9423 3.72709L42.5266 3.14282L41.9423 2.55855Z" fill="#4827CC"/>
<path d="M43.6951 2.55855L43.1109 3.14282L43.6951 3.72709L44.2794 3.14282L43.6951 2.55855Z" fill="#4827CC"/>
<path d="M38.4784 4.31136L37.8524 4.93737L38.4784 5.56337L39.1044 4.93737L38.4784 4.31136Z" fill="#4827CC"/>
<path d="M40.1895 4.31136L39.6052 4.89564L40.1895 5.47991L40.7738 4.89564L40.1895 4.31136Z" fill="#4827CC"/>
<path d="M41.9423 4.31136L41.358 4.89564L41.9423 5.47991L42.5266 4.89564L41.9423 4.31136Z" fill="#4827CC"/>
<path d="M43.6951 4.31136L43.1109 4.89564L43.6951 5.47991L44.2794 4.89564L43.6951 4.31136Z" fill="#4827CC"/>
<path d="M45.4479 4.31136L44.8637 4.89564L45.4479 5.47991L46.0322 4.89564L45.4479 4.31136Z" fill="#4827CC"/>
<path d="M40.1895 6.06418L39.6052 6.64845L40.1895 7.23272L40.7738 6.64845L40.1895 6.06418Z" fill="#4827CC"/>
<path d="M41.9423 6.06418L41.358 6.64845L41.9423 7.23272L42.5266 6.64845L41.9423 6.06418Z" fill="#4827CC"/>
<path d="M43.6951 6.06418L43.1109 6.64845L43.6951 7.23272L44.2794 6.64845L43.6951 6.06418Z" fill="#4827CC"/>
<path d="M45.4479 6.06418L44.8637 6.64845L45.4479 7.23272L46.0322 6.64845L45.4479 6.06418Z" fill="#4827CC"/>
<path d="M47.2007 6.06418L46.6165 6.64845L47.2007 7.23272L47.785 6.64845L47.2007 6.06418Z" fill="#4827CC"/>
<path d="M41.9423 0.889206L41.3998 1.43174L41.9423 1.97428L42.4848 1.43174L41.9423 0.889206Z" fill="#4827CC"/>
<path d="M41.9423 7.81699L41.358 8.40126L41.9423 8.98553L42.5266 8.40126L41.9423 7.81699Z" fill="#4827CC"/>
<path d="M43.6951 7.81699L43.1109 8.40126L43.6951 8.98553L44.2794 8.40126L43.6951 7.81699Z" fill="#4827CC"/>
<path d="M45.4479 7.81699L44.8637 8.40126L45.4479 8.98553L46.0322 8.40126L45.4479 7.81699Z" fill="#4827CC"/>
<path d="M47.2007 7.81699L46.6165 8.40126L47.2007 8.98553L47.785 8.40126L47.2007 7.81699Z" fill="#4827CC"/>
<path d="M48.9536 7.81699L48.3693 8.40126L48.9536 8.98553L49.5378 8.40126L48.9536 7.81699Z" fill="#4827CC"/>
<path d="M43.6951 9.5698L43.1109 10.1541L43.6951 10.7383L44.2794 10.1541L43.6951 9.5698Z" fill="#4827CC"/>
<path d="M45.4479 9.5698L44.8637 10.1541L45.4479 10.7383L46.0322 10.1541L45.4479 9.5698Z" fill="#4827CC"/>
<path d="M47.2007 9.5698L46.6165 10.1541L47.2007 10.7383L47.785 10.1541L47.2007 9.5698Z" fill="#4827CC"/>
<path d="M48.9536 9.5698L48.3693 10.1541L48.9536 10.7383L49.5378 10.1541L48.9536 9.5698Z" fill="#4827CC"/>
<path d="M50.6646 9.5698L50.0804 10.1541L50.6646 10.7383L51.2489 10.1541L50.6646 9.5698Z" fill="#4827CC"/>
<path d="M45.4479 11.3226L44.8637 11.9069L45.4479 12.4912L46.0322 11.9069L45.4479 11.3226Z" fill="#4827CC"/>
<path d="M47.2007 11.3226L46.6165 11.9069L47.2007 12.4912L47.785 11.9069L47.2007 11.3226Z" fill="#4827CC"/>
<path d="M48.9536 11.3226L48.3693 11.9069L48.9536 12.4912L49.5378 11.9069L48.9536 11.3226Z" fill="#4827CC"/>
<path d="M50.6646 11.3226L50.0804 11.9069L50.6646 12.4912L51.2489 11.9069L50.6646 11.3226Z" fill="#4827CC"/>
<path d="M52.3757 11.3226L51.7914 11.9069L52.3757 12.4912L52.96 11.9069L52.3757 11.3226Z" fill="#4827CC"/>
<path d="M47.2007 13.0754L46.6165 13.6597L47.2007 14.244L47.785 13.6597L47.2007 13.0754Z" fill="#4827CC"/>
<path d="M48.9536 13.0754L48.3693 13.6597L48.9536 14.244L49.5378 13.6597L48.9536 13.0754Z" fill="#4827CC"/>
<path d="M50.6646 13.0754L50.0804 13.6597L50.6646 14.244L51.2489 13.6597L50.6646 13.0754Z" fill="#4827CC"/>
<path d="M52.3757 13.0754L51.7914 13.6597L52.3757 14.244L52.96 13.6597L52.3757 13.0754Z" fill="#4827CC"/>
<path d="M54.1285 13.0754L53.5443 13.6597L54.1285 14.244L54.7128 13.6597L54.1285 13.0754Z" fill="#4827CC"/>
<path d="M48.9536 14.8282L48.3693 15.4125L48.9536 15.9968L49.5378 15.4125L48.9536 14.8282Z" fill="#4827CC"/>
<path d="M50.6646 14.8282L50.0804 15.4125L50.6646 15.9968L51.2489 15.4125L50.6646 14.8282Z" fill="#4827CC"/>
<path d="M52.3757 14.8282L51.7914 15.4125L52.3757 15.9968L52.96 15.4125L52.3757 14.8282Z" fill="#4827CC"/>
<path d="M54.1285 14.8282L53.5443 15.4125L54.1285 15.9968L54.7128 15.4125L54.1285 14.8282Z" fill="#4827CC"/>
<path d="M55.8813 14.8282L55.2971 15.4125L55.8813 15.9968L56.4656 15.4125L55.8813 14.8282Z" fill="#4827CC"/>
<path d="M50.6646 16.5811L50.0804 17.1653L50.6646 17.7496L51.2489 17.1653L50.6646 16.5811Z" fill="#4827CC"/>
<path d="M52.3757 16.5811L51.7914 17.1653L52.3757 17.7496L52.96 17.1653L52.3757 16.5811Z" fill="#4827CC"/>
<path d="M53.5443 17.1653L54.1285 17.7496L54.7128 17.1653L54.1285 16.5811L53.5443 17.1653Z" fill="#4827CC"/>
<path d="M55.2971 17.1653L55.8813 17.7496L56.4656 17.1653L55.8813 16.5811L55.2971 17.1653Z" fill="#4827CC"/>
<path d="M57.0916 17.1653L57.6759 17.7496L58.2602 17.1653L57.6759 16.5811L57.0916 17.1653Z" fill="#4827CC"/>
<path d="M50.6646 18.2921L50.0804 18.8764L50.6646 19.4607L51.2489 18.8764L50.6646 18.2921Z" fill="#4827CC"/>
<path d="M51.7914 18.8764L52.3757 19.4607L52.96 18.8764L52.3757 18.2921L51.7914 18.8764Z" fill="#4827CC"/>
<path d="M53.5443 18.8764L54.1285 19.4607L54.7128 18.8764L54.1285 18.2921L53.5443 18.8764Z" fill="#4827CC"/>
<path d="M55.2971 18.8764L55.8813 19.4607L56.4656 18.8764L55.8813 18.2921L55.2971 18.8764Z" fill="#4827CC"/>
<path d="M57.0916 18.8764L57.6759 19.4607L58.2602 18.8764L57.6759 18.2921L57.0916 18.8764Z" fill="#4827CC"/>
<path d="M48.9536 20.0104L48.3693 20.5946L48.9536 21.1789L49.5378 20.5946L48.9536 20.0104Z" fill="#4827CC"/>
<path d="M50.6646 20.0449L50.0804 20.6292L50.6646 21.2135L51.2489 20.6292L50.6646 20.0449Z" fill="#4827CC"/>
<path d="M52.3757 20.0449L51.7914 20.6292L52.3757 21.2135L52.96 20.6292L52.3757 20.0449Z" fill="#4827CC"/>
<path d="M54.1285 20.0449L53.5443 20.6292L54.1285 21.2135L54.7128 20.6292L54.1285 20.0449Z" fill="#4827CC"/>
<path d="M55.8813 20.0449L55.2971 20.6292L55.8813 21.2135L56.4656 20.6292L55.8813 20.0449Z" fill="#4827CC"/>
<path d="M47.2007 21.7639L46.6165 22.3482L47.2007 22.9324L47.785 22.3482L47.2007 21.7639Z" fill="#4827CC"/>
<path d="M48.9536 21.7632L48.3693 22.3475L48.9536 22.9317L49.5378 22.3475L48.9536 21.7632Z" fill="#4827CC"/>
<path d="M50.6646 21.7978L50.0804 22.382L50.6646 22.9663L51.2489 22.382L50.6646 21.7978Z" fill="#4827CC"/>
<path d="M52.3757 21.7978L51.7914 22.382L52.3757 22.9663L52.96 22.382L52.3757 21.7978Z" fill="#4827CC"/>
<path d="M54.1285 21.7978L53.5443 22.382L54.1285 22.9663L54.7128 22.382L54.1285 21.7978Z" fill="#4827CC"/>
<path d="M45.4486 23.5167L44.8644 24.101L45.4486 24.6852L46.0329 24.101L45.4486 23.5167Z" fill="#4827CC"/>
<path d="M47.2007 23.5167L46.6165 24.101L47.2007 24.6852L47.785 24.101L47.2007 23.5167Z" fill="#4827CC"/>
<path d="M48.9536 23.516L48.3693 24.1003L48.9536 24.6845L49.5378 24.1003L48.9536 23.516Z" fill="#4827CC"/>
<path d="M50.6646 23.5506L50.0804 24.1348L50.6646 24.7191L51.2489 24.1348L50.6646 23.5506Z" fill="#4827CC"/>
<path d="M52.3757 23.5506L51.7914 24.1348L52.3757 24.7191L52.96 24.1348L52.3757 23.5506Z" fill="#4827CC"/>
<path d="M43.6951 25.2617L43.1109 25.8459L43.6951 26.4302L44.2794 25.8459L43.6951 25.2617Z" fill="#4827CC"/>
<path d="M45.4486 25.2695L44.8644 25.8538L45.4486 26.4381L46.0329 25.8538L45.4486 25.2695Z" fill="#4827CC"/>
<path d="M47.2007 25.2695L46.6165 25.8538L47.2007 26.4381L47.785 25.8538L47.2007 25.2695Z" fill="#4827CC"/>
<path d="M48.9536 25.2688L48.3693 25.8531L48.9536 26.4374L49.5378 25.8531L48.9536 25.2688Z" fill="#4827CC"/>
<path d="M50.6646 25.3034L50.0804 25.8877L50.6646 26.4719L51.2489 25.8877L50.6646 25.3034Z" fill="#4827CC"/>
<path d="M41.9423 27.0145L41.3998 27.557L41.9423 28.0995L42.4848 27.557L41.9423 27.0145Z" fill="#4827CC"/>
<path d="M43.6951 27.0145L43.1109 27.5987L43.6951 28.183L44.2794 27.5987L43.6951 27.0145Z" fill="#4827CC"/>
<path d="M45.4486 27.0223L44.8644 27.6066L45.4486 28.1909L46.0329 27.6066L45.4486 27.0223Z" fill="#4827CC"/>
<path d="M47.2007 27.0223L46.6165 27.6066L47.2007 28.1909L47.785 27.6066L47.2007 27.0223Z" fill="#4827CC"/>
<path d="M48.9536 27.0216L48.3693 27.6059L48.9536 28.1902L49.5378 27.6059L48.9536 27.0216Z" fill="#4827CC"/>
<path d="M40.1895 28.6838L39.6052 29.2681L40.1895 29.8524L40.7738 29.2681L40.1895 28.6838Z" fill="#4827CC"/>
<path d="M41.9423 28.6838L41.358 29.2681L41.9423 29.8524L42.5266 29.2681L41.9423 28.6838Z" fill="#4827CC"/>
<path d="M43.6951 28.6838L43.1109 29.2681L43.6951 29.8524L44.2794 29.2681L43.6951 28.6838Z" fill="#4827CC"/>
<path d="M45.4486 28.7751L44.8644 29.3594L45.4486 29.9437L46.0329 29.3594L45.4486 28.7751Z" fill="#4827CC"/>
<path d="M47.2007 28.7751L46.6165 29.3594L47.2007 29.9437L47.785 29.3594L47.2007 28.7751Z" fill="#4827CC"/>
<path d="M38.4784 30.4366L37.8524 31.0626L38.4784 31.6886L39.1044 31.0626L38.4784 30.4366Z" fill="#4827CC"/>
<path d="M40.1895 30.4366L39.6052 31.0209L40.1895 31.6052L40.7738 31.0209L40.1895 30.4366Z" fill="#4827CC"/>
<path d="M41.9423 30.4366L41.358 31.0209L41.9423 31.6052L42.5266 31.0209L41.9423 30.4366Z" fill="#4827CC"/>
<path d="M43.6951 30.4366L43.1109 31.0209L43.6951 31.6052L44.2794 31.0209L43.6951 30.4366Z" fill="#4827CC"/>
<path d="M45.4486 30.528L44.8644 31.1122L45.4486 31.6965L46.0329 31.1122L45.4486 30.528Z" fill="#4827CC"/>
<path d="M40.1895 32.1894L39.6052 32.7737L40.1895 33.358L40.7738 32.7737L40.1895 32.1894Z" fill="#4827CC"/>
<path d="M41.9423 32.1894L41.358 32.7737L41.9423 33.358L42.5266 32.7737L41.9423 32.1894Z" fill="#4827CC"/>
<path d="M43.6951 32.1894L43.1109 32.7737L43.6951 33.358L44.2794 32.7737L43.6951 32.1894Z" fill="#4827CC"/>
<path d="M41.9423 33.9422L41.358 34.5265L41.9423 35.1108L42.5266 34.5265L41.9423 33.9422Z" fill="#4827CC"/>
<path d="M84.7971 26.4042C83.2224 27.0016 81.4348 27.3003 79.4344 27.3003C72.8799 27.3003 69.6027 24.1215 69.6027 17.7638C69.6027 11.7475 72.8799 8.73934 79.4344 8.73934C81.4348 8.73934 83.2224 9.03802 84.7971 9.63538V12.7075C83.2224 12.0248 81.5199 11.6835 79.6897 11.6835C75.3059 11.6835 73.114 13.7103 73.114 17.7638C73.114 22.1587 75.3059 24.3561 79.6897 24.3561C81.5199 24.3561 83.2224 24.0148 84.7971 23.3321V26.4042Z" fill="#4827CC"/>
<path d="M91.7224 20.4006C91.7224 23.2082 92.8078 24.612 94.9784 24.612C97.1489 24.612 98.2343 23.2082 98.2343 20.4006C98.2343 17.6613 97.1489 16.2916 94.9784 16.2916C92.8078 16.2916 91.7224 17.6613 91.7224 20.4006ZM88.3387 20.4518C88.3387 15.946 90.552 13.6931 94.9784 13.6931C99.4047 13.6931 101.618 15.946 101.618 20.4518C101.618 24.9491 99.4047 27.1978 94.9784 27.1978C90.5689 27.1978 88.3558 24.9491 88.3387 20.4518Z" fill="#4827CC"/>
<path d="M105.479 27.1722V13.7315H108.096L108.518 15.7028C109.803 14.3886 111.267 13.7315 112.91 13.7315C116.085 13.7315 117.673 15.387 117.673 18.6982V27.1722H114.289V18.6982C114.289 17.2133 113.553 16.4708 112.08 16.4708C110.982 16.4708 109.909 16.9103 108.862 17.7893V27.1722H105.479Z" fill="#4827CC"/>
<path d="M122.185 27.1722V13.7315H124.802L125.224 15.7028C126.509 14.3886 127.973 13.7315 129.616 13.7315C132.791 13.7315 134.378 15.3871 134.378 18.6982V27.1722H130.995V18.6982C130.995 17.2133 130.258 16.4709 128.786 16.4709C127.688 16.4709 126.615 16.9103 125.568 17.7893V27.1722H122.185Z" fill="white"/>
<path d="M144.549 13.7315C148.618 13.7315 150.652 15.8138 150.652 19.9782C150.652 20.5329 150.614 21.0876 150.537 21.6423C150.461 22.197 145.8 21.2327 145.8 21.2327C145.8 21.2327 142.421 20.2053 141.638 21.6423C140.695 23.3726 143.025 24.4841 145.8 24.4841C147.154 24.4841 148.507 24.3561 149.861 24.1V26.7882C148.677 27.0442 147.239 27.1722 145.545 27.1722C140.684 27.1722 138.254 24.8809 138.254 20.2983C138.254 15.9204 140.352 13.7315 144.549 13.7315ZM141.638 19.287H147.358V19.1846C147.358 17.3242 146.422 16.3941 144.549 16.3941C142.761 16.3941 141.791 17.3584 141.638 19.287Z" fill="white"/>
<path d="M157.92 20.4519L152.902 13.7315H156.669L159.797 17.9301L162.925 13.7315H166.692L161.687 20.4519L166.692 27.1722H162.925L159.797 22.9736L156.669 27.1722H152.902L157.92 20.4519Z" fill="white"/>
<path d="M169.406 11.5554H171.909L172.42 13.7315H175.79V16.4197H172.79V22.6024C172.79 23.8568 173.33 24.4841 174.411 24.4841H175.79V27.1722H172.777C170.53 27.1722 169.406 25.9647 169.406 23.5496V11.5554Z" fill="white"/>
<path d="M182.794 8.8673V11.5554H179.41V8.8673H182.794ZM182.794 13.7315V27.1722H179.41V13.7315H182.794Z" fill="#4827CC"/>
<path d="M190.051 20.4007C190.051 23.2083 191.136 24.6121 193.307 24.6121C195.478 24.6121 196.563 23.2083 196.563 20.4007C196.563 17.6613 195.478 16.2917 193.307 16.2917C191.136 16.2917 190.051 17.6613 190.051 20.4007ZM186.667 20.4519C186.667 15.946 188.881 13.6931 193.307 13.6931C197.733 13.6931 199.947 15.946 199.947 20.4519C199.947 24.9492 197.733 27.1978 193.307 27.1978C188.898 27.1978 186.684 24.9492 186.667 20.4519Z" fill="#4827CC"/>
<path d="M203.806 27.1722V13.7315H206.424L206.845 15.7028C208.13 14.3886 209.595 13.7315 211.237 13.7315C214.412 13.7315 216 15.3871 216 18.6982V27.1722H212.616V18.6982C212.616 17.2133 211.88 16.4709 210.407 16.4709C209.309 16.4709 208.237 16.9103 207.19 17.7893V27.1722H203.806Z" fill="#4827CC"/>
</svg>
